<mxfile host="app.diagrams.net" agent="Mozilla/5.0 (Macintosh; Intel Mac OS X 10_15_7) AppleWebKit/605.1.15 (KHTML, like Gecko) Version/17.4 Safari/605.1.15" version="25.0.3">
  <diagram name="第 1 页" id="A_4xIr7__ECKkdeNHGXi">
    <mxGraphModel dx="989" dy="570" grid="0" gridSize="10" guides="1" tooltips="1" connect="1" arrows="1" fold="1" page="1" pageScale="1" pageWidth="827" pageHeight="1169" math="0" shadow="0">
      <root>
        <mxCell id="0" />
        <mxCell id="1" parent="0" />
        <mxCell id="coExr74ZA5US345ny6Vj-9" style="edgeStyle=orthogonalEdgeStyle;rounded=0;orthogonalLoop=1;jettySize=auto;html=1;exitX=0.5;exitY=1;exitDx=0;exitDy=0;entryX=0.5;entryY=0;entryDx=0;entryDy=0;" edge="1" parent="1" source="coExr74ZA5US345ny6Vj-1" target="coExr74ZA5US345ny6Vj-2">
          <mxGeometry relative="1" as="geometry" />
        </mxCell>
        <mxCell id="coExr74ZA5US345ny6Vj-1" value="&lt;font style=&quot;font-size: 16px;&quot;&gt;开始&lt;/font&gt;" style="ellipse;whiteSpace=wrap;html=1;" vertex="1" parent="1">
          <mxGeometry x="360" y="240" width="80" height="40" as="geometry" />
        </mxCell>
        <mxCell id="coExr74ZA5US345ny6Vj-10" style="edgeStyle=orthogonalEdgeStyle;rounded=0;orthogonalLoop=1;jettySize=auto;html=1;exitX=0.5;exitY=1;exitDx=0;exitDy=0;entryX=0.5;entryY=0;entryDx=0;entryDy=0;" edge="1" parent="1" source="coExr74ZA5US345ny6Vj-2" target="coExr74ZA5US345ny6Vj-3">
          <mxGeometry relative="1" as="geometry" />
        </mxCell>
        <mxCell id="coExr74ZA5US345ny6Vj-2" value="&lt;span style=&quot;text-align: start; font-size: medium;&quot;&gt;计算频率&lt;/span&gt;" style="rounded=1;whiteSpace=wrap;html=1;" vertex="1" parent="1">
          <mxGeometry x="360" y="299" width="80" height="30" as="geometry" />
        </mxCell>
        <mxCell id="coExr74ZA5US345ny6Vj-11" style="edgeStyle=orthogonalEdgeStyle;rounded=0;orthogonalLoop=1;jettySize=auto;html=1;exitX=0.5;exitY=1;exitDx=0;exitDy=0;entryX=0.5;entryY=0;entryDx=0;entryDy=0;" edge="1" parent="1" source="coExr74ZA5US345ny6Vj-3" target="coExr74ZA5US345ny6Vj-5">
          <mxGeometry relative="1" as="geometry" />
        </mxCell>
        <mxCell id="coExr74ZA5US345ny6Vj-3" value="&lt;span style=&quot;text-align: start; font-size: medium;&quot;&gt;优先级队列&lt;/span&gt;" style="rounded=1;whiteSpace=wrap;html=1;" vertex="1" parent="1">
          <mxGeometry x="345" y="350" width="110" height="30" as="geometry" />
        </mxCell>
        <mxCell id="coExr74ZA5US345ny6Vj-12" style="edgeStyle=orthogonalEdgeStyle;rounded=0;orthogonalLoop=1;jettySize=auto;html=1;exitX=0.5;exitY=1;exitDx=0;exitDy=0;entryX=0.5;entryY=0;entryDx=0;entryDy=0;" edge="1" parent="1" source="coExr74ZA5US345ny6Vj-5" target="coExr74ZA5US345ny6Vj-7">
          <mxGeometry relative="1" as="geometry" />
        </mxCell>
        <mxCell id="coExr74ZA5US345ny6Vj-5" value="&lt;span style=&quot;text-align: start; font-size: medium;&quot;&gt;赫夫曼树构建&lt;/span&gt;" style="rounded=1;whiteSpace=wrap;html=1;" vertex="1" parent="1">
          <mxGeometry x="345" y="400" width="110" height="30" as="geometry" />
        </mxCell>
        <mxCell id="coExr74ZA5US345ny6Vj-13" style="edgeStyle=orthogonalEdgeStyle;rounded=0;orthogonalLoop=1;jettySize=auto;html=1;exitX=0.5;exitY=1;exitDx=0;exitDy=0;entryX=0.5;entryY=0;entryDx=0;entryDy=0;" edge="1" parent="1" source="coExr74ZA5US345ny6Vj-7" target="coExr74ZA5US345ny6Vj-8">
          <mxGeometry relative="1" as="geometry" />
        </mxCell>
        <mxCell id="coExr74ZA5US345ny6Vj-7" value="&lt;span style=&quot;caret-color: rgb(0, 0, 0); color: rgb(0, 0, 0); font-family: Helvetica; font-size: medium; font-style: normal; font-variant-caps: normal; font-weight: 400; letter-spacing: normal; orphans: auto; text-align: start; text-indent: 0px; text-transform: none; white-space: normal; widows: auto; word-spacing: 0px; -webkit-text-stroke-width: 0px; background-color: rgb(251, 251, 251); text-decoration: none; display: inline !important; float: none;&quot;&gt;绘制赫夫曼树&lt;/span&gt;" style="rounded=1;whiteSpace=wrap;html=1;" vertex="1" parent="1">
          <mxGeometry x="345" y="450" width="110" height="30" as="geometry" />
        </mxCell>
        <mxCell id="coExr74ZA5US345ny6Vj-8" value="&lt;font style=&quot;font-size: 16px;&quot;&gt;结束&lt;/font&gt;" style="ellipse;whiteSpace=wrap;html=1;" vertex="1" parent="1">
          <mxGeometry x="360" y="500" width="80" height="40" as="geometry" />
        </mxCell>
      </root>
    </mxGraphModel>
  </diagram>
</mxfile>
